<svg id="Layer_1" height="512" viewBox="0 0 512.002 512.002" width="512" xmlns="http://www.w3.org/2000/svg"><path d="M411.71 143.501v154.56c0 3.46-.33 6.84-.96 10.12a52.2 52.2 0 00-23.29 10.82 52.654 52.654 0 00-15.36 20.48c-1.47 3.5-2.57 7.2-3.25 11.04-3.39.68-6.89 1.04-10.48 1.04H168.39l-45.97 54.1c-1.42 1.68-3.5 2.65-5.7 2.65s-4.29-.97-5.72-2.65l-45.97-54.1H53.35c-29.42 0-53.35-24-53.35-53.5v-154.56c0-29.5 23.93-53.5 53.35-53.5h305.02c29.41 0 53.34 24 53.34 53.5z" fill="#9090fb"/><path d="M338.38 351.561c12.78 0 24.52-4.53 33.72-12.08-1.47 3.5-2.57 7.2-3.25 11.04-3.39.68-6.89 1.04-10.48 1.04zm73.33-208.06v154.56c0 3.46-.33 6.84-.96 10.12a52.2 52.2 0 00-23.29 10.82 53.3 53.3 0 004.26-20.94v-154.56c0-29.5-23.93-53.5-53.34-53.5h19.99c29.41 0 53.34 24 53.34 53.5z" fill="#6c5fea"/><path d="M253.612 479.661c0 17.83-14.48 32.34-32.277 32.34H32.277C14.48 512.001 0 497.491 0 479.661s14.48-32.33 32.277-32.33h2.808l16.868-23.3a7.493 7.493 0 016.066-3.11 7.499 7.499 0 016.076 3.11l16.868 23.3h140.371c17.798 0 32.278 14.5 32.278 32.33z" fill="#ff6b81"/><path d="M512 32.341c0 17.83-14.48 32.33-32.277 32.33h-19.986l-16.868 23.3a7.493 7.493 0 01-6.066 3.11 7.499 7.499 0 01-6.076-3.11l-16.858-23.3H290.666c-17.797 0-32.277-14.5-32.277-32.33S272.869.001 290.666.001h189.057C497.52.001 512 14.511 512 32.341z" fill="#fbdf63"/><path d="M512 32.341c0 17.83-14.48 32.33-32.277 32.33h-19.986c17.797 0 32.277-14.5 32.277-32.33S477.534.001 459.737.001h19.986C497.52.001 512 14.511 512 32.341z" fill="#ffa402"/><path d="M253.612 479.661c0 17.83-14.48 32.34-32.277 32.34h-19.986c17.797 0 32.277-14.51 32.277-32.34s-14.48-32.33-32.277-32.33h19.986c17.797 0 32.277 14.5 32.277 32.33z" fill="#ed2061"/><path d="M149.854 188.446c4.142 0 7.5-3.357 7.5-7.5s-3.358-7.5-7.5-7.5h-39.999a7.5 7.5 0 00-7.5 7.5v40a7.5 7.5 0 007.5 7.5h32.499v25h-32.499c-4.142 0-7.5 3.357-7.5 7.5s3.358 7.5 7.5 7.5h39.999a7.5 7.5 0 007.5-7.5v-40a7.5 7.5 0 00-7.5-7.5h-32.499v-25zm74.999 0c4.142 0 7.5-3.357 7.5-7.5s-3.358-7.5-7.5-7.5h-39.999a7.5 7.5 0 00-7.5 7.5v80a7.5 7.5 0 007.5 7.5h39.999c4.142 0 7.5-3.357 7.5-7.5s-3.358-7.5-7.5-7.5h-32.499v-25h32.499c4.142 0 7.5-3.357 7.5-7.5s-3.358-7.5-7.5-7.5h-32.499v-25zm74.998-15h-39.999a7.5 7.5 0 00-7.5 7.5v80a7.5 7.5 0 007.5 7.5h39.999a7.5 7.5 0 007.5-7.5v-80a7.5 7.5 0 00-7.5-7.5zm-7.5 80h-24.999v-65h24.999z" fill="#fff"/><path d="M511.992 344.749c0-3.68-2.69-6.82-6.33-7.4l-10.35-1.64-4.93-11.919 6.15-8.49a7.505 7.505 0 00-.77-9.709l-21.18-21.179a7.507 7.507 0 00-9.72-.76l-8.47 6.16-11.91-4.93-1.65-10.359a7.499 7.499 0 00-7.4-6.32h-12.73l-17.22.01a7.52 7.52 0 00-7.41 6.33l-1.64 10.359-11.9 4.94-8.48-6.16a7.506 7.506 0 00-9.71.77l-21.17 21.199a7.492 7.492 0 00-.76 9.709l6.15 8.48-4.93 11.929-10.34 1.64a7.502 7.502 0 00-6.32 7.41l.01 29.968c0 3.68 2.69 6.82 6.33 7.4l10.35 1.64 4.93 11.919-6.15 8.489a7.505 7.505 0 00.77 9.709l21.18 21.179a7.494 7.494 0 009.71.76l8.47-6.16 11.92 4.94 1.65 10.349a7.499 7.499 0 007.4 6.32h.01l14.99-.01h14.95a7.52 7.52 0 007.41-6.33l1.64-10.359 11.9-4.94 8.48 6.16c2.99 2.16 7.11 1.84 9.71-.77l21.17-21.199a7.492 7.492 0 00.76-9.709l-6.15-8.479 4.93-11.919 10.34-1.65a7.502 7.502 0 006.32-7.41zm-91.51 55.017c-22.09 0-40-17.909-40-39.998s17.91-39.998 40-39.998c22.1 0 40 17.909 40 39.998s-17.9 39.998-40 39.998z" fill="#56788b"/><path d="M512.002 374.717c0 3.69-2.68 6.83-6.32 7.41l-10.34 1.65-4.93 11.919 6.15 8.48a7.492 7.492 0 01-.76 9.709l-21.17 21.199c-2.6 2.61-6.72 2.93-9.71.77l-8.48-6.16-11.9 4.94-1.64 10.359a7.52 7.52 0 01-7.41 6.33h-14.95l6.62-31.128 31.96-13.269 8.91 6.47 6.08-6.1-6.46-8.9 13.48-32.608 10.87-1.73-.01-8.629-10.87-1.72-13.5-32.598 6.46-8.91-6.09-6.09-8.9 6.46-33.31-13.789-3.08-30.578h12.73c3.68 0 6.82 2.68 7.4 6.32l1.65 10.359 11.91 4.93 8.47-6.16a7.507 7.507 0 019.72.76l21.18 21.179a7.505 7.505 0 01.77 9.709l-6.15 8.49 4.93 11.919 10.35 1.64c3.64.58 6.33 3.72 6.33 7.4z" fill="#415e6f"/></svg>