<?xml version="1.0" standalone="no"?>
<!DOCTYPE svg PUBLIC "-//W3C//DTD SVG 20010904//EN"
 "http://www.w3.org/TR/2001/REC-SVG-20010904/DTD/svg10.dtd">
<svg version="1.0" xmlns="http://www.w3.org/2000/svg"
 width="501.000000pt" height="501.000000pt" viewBox="0 0 501.000000 501.000000"
 preserveAspectRatio="xMidYMid meet">
<metadata>
Created by potrace 1.11, written by Peter Selinger 2001-2013
</metadata>
<g transform="translate(0.000000,501.000000) scale(0.100000,-0.100000)"
fill="#000000" stroke="none">
<path d="M0 2505 l0 -2505 2505 0 2505 0 0 2505 0 2505 -2505 0 -2505 0 0
-2505z m4500 1025 c0 -20 -7 -20 -2000 -20 -1993 0 -2000 0 -2000 20 0 20 7
20 2000 20 1993 0 2000 0 2000 -20z m-2618 -262 c62 -35 97 -118 78 -188 -53
-198 -340 -166 -340 38 0 129 148 214 262 150z m368 -4 c0 -23 -1 -24 -16 -10
-10 10 -33 16 -65 16 l-49 0 0 -64 0 -63 52 -5 c40 -4 57 -11 75 -32 42 -49
26 -117 -32 -142 -36 -15 -170 -20 -147 -5 10 6 12 45 10 169 l-3 162 88 0
c87 0 87 0 87 -26z m225 -115 l58 -141 60 141 c59 137 61 141 91 141 23 0 27
-3 18 -12 -17 -17 -17 -299 0 -316 9 -9 4 -12 -25 -12 -33 0 -36 2 -28 18 11
21 13 265 2 258 -4 -3 -34 -67 -66 -141 -67 -158 -55 -161 -132 25 l-48 115
-3 -124 c-2 -82 1 -128 9 -137 9 -12 5 -14 -22 -14 -22 0 -29 3 -21 9 10 6 13
44 10 170 -3 157 -2 161 18 161 17 0 30 -24 79 -141z m525 115 c0 -23 -1 -24
-16 -10 -10 11 -34 16 -70 16 l-54 0 0 -65 0 -65 43 0 c24 0 48 5 55 12 9 9
13 7 18 -6 10 -25 -1 -30 -61 -27 l-55 2 0 -75 0 -76 65 0 c50 0 66 4 74 18 9
14 10 13 11 -10 l0 -28 -107 1 c-60 0 -102 3 -95 6 9 3 12 46 12 163 0 117 -3
160 -12 163 -7 3 33 6 90 6 l102 1 0 -26z m160 7 c-5 -11 -10 -45 -10 -75 l0
-56 81 0 81 0 -4 75 c-3 74 -3 75 22 75 l25 0 0 -170 0 -170 -25 0 c-25 0 -25
0 -22 85 l3 85 -80 0 -81 0 0 -73 c0 -43 5 -78 12 -85 9 -9 3 -12 -27 -12 -30
0 -36 3 -27 12 15 15 17 281 2 309 -10 17 -7 19 25 19 32 0 35 -2 25 -19z
m-1648 -538 l-3 -68 67 68 c36 37 74 67 84 67 12 0 -7 -24 -56 -71 l-73 -72
32 -16 c23 -11 42 -36 69 -86 20 -38 47 -76 60 -82 l23 -13 -23 0 c-39 0 -61
18 -88 73 -30 60 -61 97 -81 97 -12 0 -14 -17 -11 -85 l3 -85 -35 0 c-23 0
-30 3 -22 9 10 6 13 44 10 170 l-3 161 25 0 c24 0 25 -1 22 -67z m389 57 c20
-6 43 -17 50 -26 20 -24 15 -72 -11 -99 -19 -20 -20 -25 -7 -25 24 0 57 -49
57 -84 -1 -62 -49 -96 -137 -96 l-58 0 0 170 0 170 35 0 c19 0 51 -5 71 -10z
m641 0 c102 -29 82 -145 -28 -166 l-35 -6 3 -79 3 -79 -35 0 c-23 0 -30 3 -22
9 10 6 13 44 10 170 l-3 161 35 0 c19 0 52 -5 72 -10z m372 -6 c9 -24 -3 -36
-20 -19 -9 8 -29 15 -45 15 l-30 0 3 -160 3 -160 -35 1 c-19 0 -29 3 -22 6 9
3 12 45 12 159 l0 154 -30 0 c-17 0 -39 -9 -50 -20 l-20 -20 0 23 c0 13 3 27
7 30 3 4 55 7 114 7 88 0 108 -3 113 -16z m128 -116 l-3 -132 81 109 c61 81
81 114 77 132 -4 19 0 23 22 23 l26 0 -3 -161 c-3 -126 0 -164 10 -170 8 -6
-1 -9 -25 -9 -27 0 -36 3 -31 12 7 10 7 229 0 235 -1 1 -37 -45 -80 -102 -55
-74 -77 -111 -73 -125 4 -17 0 -20 -31 -20 -23 0 -32 3 -24 9 10 6 12 45 10
169 l-3 162 25 0 25 0 -3 -132z m423 122 c104 -24 96 -134 -11 -161 l-45 -12
3 -78 c3 -78 3 -79 -22 -79 l-25 0 0 170 0 170 30 0 c17 0 48 -5 70 -10z
m-1237 -32 c7 -18 31 -85 54 -148 22 -63 48 -123 56 -132 14 -17 12 -18 -22
-18 -23 0 -35 4 -31 10 4 6 -4 40 -17 76 l-23 65 -45 -3 -45 -3 -22 -60 c-12
-33 -20 -66 -18 -72 3 -8 -5 -13 -20 -13 l-24 0 18 33 c10 17 40 92 67 165 26
72 51 132 54 132 3 0 11 -15 18 -32z m2272 -588 c0 -20 -7 -20 -2000 -20
-1993 0 -2000 0 -2000 20 0 20 7 20 2000 20 1993 0 2000 0 2000 -20z m-3390
-269 c0 -4 -11 -6 -25 -3 -21 4 -25 1 -25 -20 0 -17 8 -27 30 -35 51 -19 34
-73 -22 -73 -28 0 -28 0 -28 70 l0 70 35 0 c19 0 35 -4 35 -9z m130 -19 c0
-22 7 -30 30 -39 51 -19 34 -73 -22 -73 -28 0 -28 0 -28 70 0 40 4 70 10 70 6
0 10 -13 10 -28z m100 -42 c0 -40 -4 -70 -10 -70 -6 0 -10 30 -10 70 0 40 4
70 10 70 6 0 10 -30 10 -70z m210 62 c0 -4 -15 -6 -34 -4 -28 3 -37 -1 -51
-22 -15 -22 -16 -31 -5 -56 13 -31 47 -47 75 -36 8 3 15 1 15 -4 0 -19 -69
-11 -90 10 -45 45 -11 120 55 120 19 0 35 -4 35 -8z m180 -1 c0 -5 -9 -7 -20
-4 -19 5 -20 0 -20 -61 0 -37 -4 -66 -10 -66 -6 0 -10 29 -10 66 0 61 -1 66
-20 61 -11 -3 -20 -1 -20 4 0 5 23 9 50 9 28 0 50 -4 50 -9z m144 3 c27 -10
13 -64 -17 -64 -5 0 -1 7 8 16 12 12 13 19 4 30 -22 26 -29 14 -29 -51 0 -37
-4 -65 -10 -65 -6 0 -10 30 -10 70 0 62 2 70 19 70 11 0 26 -3 35 -6z m226
-14 c11 -11 20 -33 20 -50 0 -17 -9 -39 -20 -50 -11 -11 -33 -20 -50 -20 -17
0 -39 9 -50 20 -11 11 -20 33 -20 50 0 17 9 39 20 50 11 11 33 20 50 20 17 0
39 -9 50 -20z m139 -27 c-1 -39 -2 -43 -9 -23 -12 36 -12 70 0 70 6 0 10 -21
9 -47z m295 31 c12 -11 13 -20 6 -34 -7 -13 -7 -21 0 -25 16 -10 12 -52 -6
-59 -9 -3 -25 -6 -37 -6 -20 0 -22 5 -22 70 0 65 1 70 22 70 12 0 29 -7 37
-16z m136 -13 c0 -23 5 -30 21 -33 56 -8 48 -70 -10 -76 l-31 -3 0 70 c0 41 4
71 10 71 6 0 10 -13 10 -29z m100 -41 c0 -40 -4 -70 -10 -70 -6 0 -10 30 -10
70 0 40 4 70 10 70 6 0 10 -30 10 -70z m180 62 c0 -5 -14 -6 -31 -4 l-31 5 4
-67 c2 -40 -1 -66 -7 -66 -6 0 -10 30 -10 70 l0 70 38 0 c20 0 37 -4 37 -8z
m201 -10 c28 -23 30 -73 4 -102 -27 -30 -78 -27 -104 6 -27 35 -26 59 4 89 29
30 64 32 96 7z m363 -12 c-2 -28 0 -30 32 -30 31 0 34 3 34 30 0 17 5 30 10
30 6 0 10 -30 10 -70 0 -40 -4 -70 -10 -70 -5 0 -10 16 -10 35 0 34 -1 35 -36
35 -36 0 -37 0 -31 -35 3 -19 2 -35 -4 -35 -5 0 -9 32 -9 70 0 39 4 70 8 70 5
0 7 -13 6 -30z m297 12 c28 -23 30 -73 4 -102 -27 -30 -78 -27 -105 7 -52 66
35 148 101 95z m139 -34 c0 -62 -5 -60 -13 5 -4 28 -3 47 3 47 6 0 10 -23 10
-52z m-590 -18 c12 -33 26 -60 31 -60 5 0 9 -3 9 -7 0 -5 -31 -8 -70 -8 -38 0
-70 3 -70 8 0 8 10 9 69 7 24 -1 41 2 38 7 -3 4 -12 26 -21 48 -14 32 -19 37
-27 25 -9 -12 -10 -12 -5 3 3 10 6 23 6 28 0 27 20 1 40 -51z m-59 -27 c-12
-20 -14 -14 -5 12 4 9 9 14 11 11 3 -2 0 -13 -6 -23z m-1061 -33 c0 -5 -5 -10
-11 -10 -5 0 -7 5 -4 10 3 6 8 10 11 10 2 0 4 -4 4 -10z m1710 0 c0 -5 -5 -10
-11 -10 -5 0 -7 5 -4 10 3 6 8 10 11 10 2 0 4 -4 4 -10z m-2188 -140 c-4 -29
-3 -30 32 -30 33 0 36 2 36 30 0 17 5 30 10 30 6 0 10 -30 10 -70 0 -40 -4
-70 -10 -70 -5 0 -10 16 -10 35 0 34 -2 35 -36 35 -35 0 -36 -1 -32 -35 2 -19
0 -35 -4 -35 -4 0 -8 32 -8 70 0 39 4 70 8 70 5 0 7 -13 4 -30z m263 -43 c13
-37 21 -67 16 -67 -5 0 -14 14 -20 30 -6 20 -17 30 -30 30 -13 0 -21 -9 -26
-30 -4 -16 -10 -30 -15 -30 -4 0 4 31 18 70 15 38 27 68 29 66 1 -1 14 -32 28
-69z m415 65 c0 -5 -13 -7 -30 -4 -27 4 -30 1 -30 -22 0 -21 5 -26 28 -27 l27
-2 -27 -4 c-24 -4 -28 -9 -28 -35 0 -29 2 -30 35 -26 19 2 35 0 35 -4 0 -4
-19 -8 -42 -8 l-43 0 0 70 0 70 38 0 c20 0 37 -4 37 -8z m132 -12 c12 -11 19
-22 16 -25 -2 -3 -15 6 -28 20 -28 30 -18 34 12 5z m48 0 c0 -11 16 -41 35
-66 20 -26 33 -49 29 -53 -3 -3 -11 2 -18 13 -6 10 -19 28 -28 40 -17 21 -17
21 -18 -16 0 -21 -4 -38 -9 -38 -6 0 -11 17 -13 38 l-3 37 -22 -37 c-12 -21
-27 -38 -32 -38 -12 0 23 63 45 80 7 7 14 23 14 36 0 13 5 24 10 24 6 0 10 -9
10 -20z m60 17 c0 -2 -12 -14 -27 -28 l-26 -24 19 27 c16 23 34 36 34 25z
m130 -27 c0 -27 3 -30 34 -30 31 0 33 2 31 30 -1 17 1 30 6 30 5 0 9 -31 9
-70 0 -38 -4 -70 -9 -70 -5 0 -8 16 -6 35 3 34 2 35 -31 35 -32 0 -34 -2 -34
-35 0 -19 -4 -35 -10 -35 -6 0 -10 30 -10 70 0 40 4 70 10 70 6 0 10 -13 10
-30z m300 10 c26 -26 25 -68 -2 -97 -43 -46 -118 -16 -118 47 0 17 9 39 20 50
11 11 33 20 50 20 17 0 39 -9 50 -20z m139 -27 c-1 -43 -2 -45 -9 -18 -11 44
-11 65 0 65 6 0 9 -21 9 -47z m-1019 -23 c12 -33 26 -60 31 -60 5 0 9 -3 9 -7
0 -5 -32 -8 -70 -8 -39 0 -70 3 -70 8 0 8 11 10 63 7 42 -2 43 2 21 55 -12 30
-18 35 -26 24 -8 -11 -9 -10 -4 4 3 10 6 23 6 28 0 27 20 1 40 -51z m-59 -27
c-12 -20 -14 -14 -5 12 4 9 9 14 11 11 3 -2 0 -13 -6 -23z m1079 -33 c0 -5 -5
-10 -11 -10 -5 0 -7 5 -4 10 3 6 8 10 11 10 2 0 4 -4 4 -10z"/>
<path d="M1723 3250 c-82 -50 -91 -171 -19 -244 42 -41 84 -51 136 -30 79 32
110 122 72 207 -36 80 -119 110 -189 67z"/>
<path d="M2120 3045 c0 -74 0 -75 26 -75 28 0 65 16 76 34 4 6 8 25 8 42 0 40
-36 74 -78 74 l-32 0 0 -75z"/>
<path d="M1840 2714 l0 -66 32 6 c43 8 58 23 58 57 0 36 -32 69 -65 69 -24 0
-25 -2 -25 -66z"/>
<path d="M1840 2558 l0 -78 33 0 c50 0 77 24 77 69 0 45 -29 76 -77 83 l-33 5
0 -79z"/>
<path d="M2480 2710 c0 -38 4 -70 9 -70 4 0 22 5 40 11 34 12 47 42 37 83 -5
21 -47 46 -77 46 -5 0 -9 -31 -9 -70z"/>
<path d="M3410 2710 c0 -38 4 -70 9 -70 4 0 22 5 40 11 34 12 47 42 37 83 -5
21 -47 46 -77 46 -5 0 -9 -31 -9 -70z"/>
<path d="M2182 2681 c-16 -52 -16 -51 22 -51 l34 0 -17 45 c-9 25 -19 45 -22
45 -3 0 -11 -17 -17 -39z"/>
<path d="M1060 1810 c0 -25 4 -31 18 -28 11 2 17 12 17 28 0 16 -6 26 -17 28
-14 3 -18 -3 -18 -28z"/>
<path d="M1240 1810 c0 -25 4 -31 18 -28 11 2 17 12 17 28 0 16 -6 26 -17 28
-14 3 -18 -3 -18 -28z"/>
<path d="M2006 1878 c-32 -46 -5 -101 47 -96 40 4 60 39 46 77 -18 46 -67 56
-93 19z"/>
<path d="M2490 1875 c0 -20 4 -26 18 -23 9 2 17 12 17 23 0 11 -8 21 -17 23
-14 3 -18 -3 -18 -23z"/>
<path d="M2490 1810 c0 -23 4 -30 20 -30 25 0 36 25 20 45 -21 25 -40 18 -40
-15z"/>
<path d="M2670 1810 c0 -25 4 -31 18 -28 11 2 17 12 17 28 0 16 -6 26 -17 28
-14 3 -18 -3 -18 -28z"/>
<path d="M3067 1882 c-35 -38 -9 -102 40 -102 25 0 53 30 53 56 0 54 -60 83
-93 46z"/>
<path d="M3727 1882 c-35 -38 -9 -102 40 -102 25 0 53 30 53 56 0 54 -60 83
-93 46z"/>
<path d="M1985 1620 c-8 -13 -1 -24 14 -19 6 3 7 10 2 18 -6 10 -10 10 -16 1z"/>
<path d="M3015 1636 c-17 -26 -12 -68 10 -86 22 -19 68 -8 81 19 13 26 3 69
-19 83 -24 15 -57 8 -72 -16z"/>
</g>
</svg>
